<?xml version="1.0" standalone="no"?>
<!DOCTYPE svg PUBLIC "-//W3C//DTD SVG 20010904//EN"
 "http://www.w3.org/TR/2001/REC-SVG-20010904/DTD/svg10.dtd">
<svg version="1.0" xmlns="http://www.w3.org/2000/svg"
 width="512.000000pt" height="512.000000pt" viewBox="0 0 512.000000 512.000000"
 preserveAspectRatio="xMidYMid meet">

<g transform="translate(0.000000,512.000000) scale(0.100000,-0.100000)"
fill="#000000" stroke="none">
<path d="M1480 4304 c-129 -34 -265 -122 -339 -218 -23 -30 -81 -139 -130
-244 -88 -193 -142 -293 -187 -347 l-24 -30 0 83 c0 75 -2 85 -25 107 l-24 25
-231 0 -231 0 -24 -25 c-24 -23 -25 -28 -25 -173 0 -129 2 -153 18 -172 14
-17 47 -28 162 -51 80 -16 149 -30 154 -32 5 -2 -66 -63 -157 -136 -92 -73
-187 -156 -213 -184 -65 -73 -126 -181 -165 -295 l-34 -97 -3 -750 c-2 -574 0
-761 9 -795 17 -59 97 -141 155 -158 58 -17 730 -17 788 0 55 16 138 99 154
154 7 23 12 85 12 138 l0 96 1440 0 1440 0 0 -96 c0 -53 5 -115 12 -138 16
-55 99 -138 154 -154 58 -17 730 -17 788 0 58 17 138 99 155 158 9 34 11 221
9 795 l-3 750 -34 97 c-39 114 -100 222 -165 295 -26 28 -121 111 -213 184
l-166 133 153 31 c199 41 190 30 190 227 0 145 -1 150 -25 173 l-24 25 -231 0
-231 0 -24 -25 c-23 -22 -25 -32 -25 -107 l0 -83 -24 30 c-45 54 -99 154 -187
347 -49 105 -107 214 -130 244 -75 98 -211 184 -344 219 -87 22 -2070 22
-2155 -1z m2194 -182 c77 -36 142 -86 181 -137 19 -25 179 -351 222 -452 4
-10 -303 -13 -1517 -13 -1214 0 -1521 3 -1517 13 43 101 203 427 222 452 52
69 167 144 252 164 22 5 487 9 1063 8 l1025 -2 69 -33z m-3034 -673 c0 -68 -1
-71 -21 -66 -12 3 -66 14 -120 24 l-99 18 0 47 0 48 120 0 120 0 0 -71z m4080
23 l0 -48 -92 -18 c-51 -10 -105 -20 -120 -23 l-28 -5 0 71 0 71 120 0 120 0
0 -48z m-487 -159 c39 -53 201 -214 260 -258 21 -15 34 -32 30 -36 -4 -4 -134
-58 -288 -119 l-280 -111 -115 -115 -115 -114 -479 0 -479 0 -103 -102 -104
-102 -104 102 -103 102 -479 0 -479 0 -115 114 -115 115 -280 111 c-154 61
-284 115 -288 119 -4 4 9 21 30 36 59 44 221 205 260 258 l35 47 1638 0 1638
0 35 -47z m-3473 -534 c168 -67 309 -126 315 -130 5 -6 -6 -25 -30 -49 l-39
-40 -312 0 c-171 0 -326 3 -343 6 -40 8 -88 52 -97 89 -8 33 10 74 59 133 42
50 114 112 130 112 7 0 149 -55 317 -121z m3969 86 c92 -76 149 -163 137 -210
-9 -37 -57 -81 -97 -89 -17 -3 -172 -6 -343 -6 l-312 0 -39 40 c-21 22 -35 43
-31 47 11 11 608 251 628 252 9 1 35 -15 57 -34z m-3463 -405 l62 -60 478 0
478 0 121 -120 c106 -105 126 -120 155 -120 29 0 49 15 155 120 l121 120 478
0 478 0 64 62 64 61 65 -62 64 -62 383 3 c416 4 416 4 486 63 l30 25 6 -23 c3
-12 6 -86 6 -164 l0 -143 -221 0 c-246 0 -300 -8 -403 -63 -85 -45 -126 -87
-126 -128 0 -73 79 -104 138 -54 17 14 57 37 89 52 50 24 74 28 172 31 l113 4
-4 -71 c-4 -75 -19 -106 -72 -145 -24 -19 -46 -22 -198 -26 -164 -5 -171 -6
-189 -29 -27 -33 -24 -77 7 -107 l25 -26 177 4 c169 3 179 5 228 30 75 40 107
70 144 139 27 51 33 75 38 145 l5 84 38 0 39 0 0 -216 c0 -141 -4 -231 -12
-258 -16 -55 -99 -138 -154 -154 -29 -8 -139 -12 -359 -12 l-318 0 -116 113
c-125 121 -191 164 -297 191 -55 14 -191 16 -1164 16 -973 0 -1109 -2 -1164
-16 -106 -27 -172 -70 -297 -191 l-116 -113 -298 0 c-204 0 -311 4 -339 12
-55 16 -138 99 -154 154 -8 27 -12 117 -12 258 l0 216 39 0 38 0 5 -83 c9
-133 61 -219 170 -278 l63 -34 177 -3 177 -4 25 26 c31 30 34 74 7 107 -18 23
-25 24 -189 29 -152 4 -174 7 -198 26 -53 39 -68 70 -72 145 l-4 71 113 -4
c98 -3 122 -7 172 -31 32 -15 72 -38 89 -52 58 -49 138 -19 138 53 0 43 -39
83 -126 129 -103 55 -157 63 -403 63 l-221 0 0 143 c0 78 3 152 6 164 l6 23
30 -25 c70 -59 70 -59 486 -63 l383 -3 62 60 c34 33 64 61 66 61 2 0 32 -27
67 -60z m2460 -973 c35 -16 82 -50 110 -78 l48 -49 -1344 0 -1344 0 44 46 c47
48 98 79 165 100 32 10 273 12 1150 11 l1110 -2 61 -28z m-3094 -285 l328 -3
0 -95 c0 -87 -2 -97 -25 -119 l-24 -25 -351 0 -351 0 -24 25 c-24 23 -25 29
-25 158 l0 133 72 -35 72 -36 328 -3z m4328 -57 c0 -131 -1 -137 -25 -160
l-24 -25 -351 0 -351 0 -24 25 c-23 22 -25 32 -25 119 l0 95 328 3 328 3 69
36 c39 20 71 37 73 37 1 1 2 -59 2 -133z"/>
</g>
</svg>
